<?xml version="1.0" encoding="UTF-8" standalone="no"?>
<svg
   height="48"
   width="48"
   version="1.1"
   id="svg1059"
   sodipodi:docname="city.svg"
   inkscape:version="1.2.2 (732a01da63, 2022-12-09)"
   xmlns:inkscape="http://www.inkscape.org/namespaces/inkscape"
   xmlns:sodipodi="http://sodipodi.sourceforge.net/DTD/sodipodi-0.dtd"
   xmlns="http://www.w3.org/2000/svg"
   xmlns:svg="http://www.w3.org/2000/svg">
  <defs
     id="defs1063" />
  <sodipodi:namedview
     id="namedview1061"
     pagecolor="#505050"
     bordercolor="#eeeeee"
     borderopacity="1"
     inkscape:showpageshadow="0"
     inkscape:pageopacity="0"
     inkscape:pagecheckerboard="0"
     inkscape:deskcolor="#505050"
     showgrid="false"
     inkscape:zoom="16.895833"
     inkscape:cx="23.970407"
     inkscape:cy="24"
     inkscape:window-width="1920"
     inkscape:window-height="1046"
     inkscape:window-x="-11"
     inkscape:window-y="-11"
     inkscape:window-maximized="1"
     inkscape:current-layer="svg1059" />
  <path
     d="M6 42V14.25h8.25V6h19.5v16.5H42V42H26.65v-8.25h-5.3V42Zm3-3h5.25v-5.25H9Zm0-8.25h5.25V25.5H9Zm0-8.25h5.25v-5.25H9Zm8.25 8.25h5.25V25.5h-5.25Zm0-8.25h5.25v-5.25h-5.25Zm0-8.25h5.25V9h-5.25Zm8.25 16.5h5.25V25.5H25.5Zm0-8.25h5.25v-5.25H25.5Zm0-8.25h5.25V9H25.5ZM33.75 39H39v-5.25h-5.25Zm0-8.25H39V25.5h-5.25Z"
     id="path1057"
     style="fill:#948e2d;fill-opacity:1" />
</svg>
