<?xml version="1.0" encoding="UTF-8" standalone="no"?>
<svg
   height="48"
   width="48"
   version="1.1"
   id="svg6350"
   sodipodi:docname="location.svg"
   inkscape:version="1.2.2 (732a01da63, 2022-12-09)"
   xmlns:inkscape="http://www.inkscape.org/namespaces/inkscape"
   xmlns:sodipodi="http://sodipodi.sourceforge.net/DTD/sodipodi-0.dtd"
   xmlns="http://www.w3.org/2000/svg"
   xmlns:svg="http://www.w3.org/2000/svg">
  <defs
     id="defs6354" />
  <sodipodi:namedview
     id="namedview6352"
     pagecolor="#505050"
     bordercolor="#eeeeee"
     borderopacity="1"
     inkscape:showpageshadow="0"
     inkscape:pageopacity="0"
     inkscape:pagecheckerboard="0"
     inkscape:deskcolor="#505050"
     showgrid="false"
     inkscape:zoom="17.604167"
     inkscape:cx="23.971598"
     inkscape:cy="24.056805"
     inkscape:window-width="1920"
     inkscape:window-height="1046"
     inkscape:window-x="-11"
     inkscape:window-y="-11"
     inkscape:window-maximized="1"
     inkscape:current-layer="svg6350" />
  <path
     d="M24 23.5q1.45 0 2.475-1.025Q27.5 21.45 27.5 20q0-1.45-1.025-2.475Q25.45 16.5 24 16.5q-1.45 0-2.475 1.025Q20.5 18.55 20.5 20q0 1.45 1.025 2.475Q22.55 23.5 24 23.5Zm0 16.55q6.65-6.05 9.825-10.975Q37 24.15 37 20.4q0-5.9-3.775-9.65T24 7q-5.45 0-9.225 3.75Q11 14.5 11 20.4q0 3.75 3.25 8.675Q17.5 34 24 40.05ZM24 44q-8.05-6.85-12.025-12.725Q8 25.4 8 20.4q0-7.5 4.825-11.95Q17.65 4 24 4q6.35 0 11.175 4.45Q40 12.9 40 20.4q0 5-3.975 10.875T24 44Zm0-23.6Z"
     id="path6348"
     style="fill:#948e2d;fill-opacity:1" />
</svg>
