<svg xmlns="http://www.w3.org/2000/svg" version="1.1" xmlns:xlink="http://www.w3.org/1999/xlink" xmlns:svgjs="http://svgjs.dev/svgjs" width="1000" height="1000" viewBox="0 0 1000 1000"><rect width="1000" height="1000" fill="#050023"></rect><g transform="matrix(0.7,0,0,0.7,149.57575757575756,457.83177555110217)"><svg viewBox="0 0 396 48" data-background-color="#050023" preserveAspectRatio="xMidYMid meet" height="121" width="1000" xmlns="http://www.w3.org/2000/svg" xmlns:xlink="http://www.w3.org/1999/xlink"><g id="tight-bounds" transform="matrix(1,0,0,1,0.2400000000000091,-0.10301329932593717)"><svg viewBox="0 0 395.52 48.206026598651846" height="48.206026598651846" width="395.52"><g><svg viewBox="0 0 395.52 48.206026598651846" height="48.206026598651846" width="395.52"><g><svg viewBox="0 0 395.52 48.206026598651846" height="48.206026598651846" width="395.52"><g id="textblocktransform"><svg viewBox="0 0 395.52 48.206026598651846" height="48.206026598651846" width="395.52" id="textblock"><g><svg viewBox="0 0 395.52 48.206026598651846" height="48.206026598651846" width="395.52"><g transform="matrix(1,0,0,1,0,0)"><svg width="395.52" viewBox="3.69 -37.55 401.99 49" height="48.206026598651846" data-palette-color="#ffffff"><path d="M44.43-32.3L44.43 0 38.04 0 38.04-20.85 26.78-1.05Q26.37-0.29 25.62 0.1 24.88 0.49 24.02 0.49L24.02 0.49Q23.19 0.49 22.47 0.1 21.75-0.29 21.34-1.05L21.34-1.05 10.03-20.85 10.03 0 3.69 0 3.69-32.3Q3.69-33.4 4.33-34.25 4.98-35.11 6.03-35.4L6.03-35.4Q6.54-35.52 7.06-35.49 7.57-35.45 8.04-35.27 8.52-35.08 8.91-34.75 9.3-34.42 9.57-33.96L9.57-33.96 24.02-8.84 38.48-33.96Q39.04-34.89 40.03-35.28 41.02-35.67 42.09-35.4L42.09-35.4Q43.12-35.11 43.77-34.25 44.43-33.4 44.43-32.3L44.43-32.3ZM78.22-17.65L78.22-8.74Q78.22-7.42 77.76-5.9 77.29-4.37 76.25-3.06 75.22-1.76 73.54-0.88 71.87 0 69.48 0L69.48 0 58.03 0Q56.71 0 55.19-0.46 53.66-0.93 52.35-1.97 51.05-3 50.17-4.68 49.29-6.35 49.29-8.74L49.29-8.74Q49.29-10.06 49.75-11.6 50.22-13.13 51.25-14.44 52.29-15.75 53.96-16.63 55.64-17.5 58.03-17.5L58.03-17.5 69.48-17.5 69.48-11.45 58.03-11.45Q56.74-11.45 56.03-10.66 55.32-9.86 55.32-8.69L55.32-8.69Q55.32-7.45 56.14-6.75 56.96-6.05 58.08-6.05L58.08-6.05 69.48-6.05Q70.77-6.05 71.48-6.84 72.19-7.62 72.19-8.79L72.19-8.79 72.19-17.65Q72.19-18.9 71.42-19.63 70.65-20.36 69.48-20.36L69.48-20.36 55.54-20.36 55.54-26.39 69.48-26.39Q70.8-26.39 72.32-25.93 73.85-25.46 75.16-24.43 76.46-23.39 77.34-21.72 78.22-20.04 78.22-17.65L78.22-17.65ZM90.08-37.55L90.08-31.81 83.74-31.81 83.74-37.55 90.08-37.55ZM90.08-26.39L90.08 2.54Q90.08 4.17 89.67 5.48 89.25 6.79 88.57 7.78 87.89 8.76 86.98 9.46 86.08 10.16 85.09 10.6 84.1 11.04 83.1 11.24 82.1 11.45 81.2 11.45L81.2 11.45 69.75 11.45 69.75 5.1 81.2 5.1Q82.47 5.1 83.1 4.44 83.74 3.78 83.74 2.54L83.74 2.54 83.74-26.39 90.08-26.39ZM124.55-17.65L124.55-17.65Q124.55-16.33 124.09-14.81 123.63-13.28 122.59-11.98 121.55-10.67 119.88-9.79 118.21-8.91 115.81-8.91L115.81-8.91 104.36-8.91 104.36-14.94 115.81-14.94Q117.11-14.94 117.81-15.73 118.52-16.53 118.52-17.7L118.52-17.7Q118.52-18.95 117.73-19.65 116.94-20.36 115.81-20.36L115.81-20.36 104.36-20.36Q103.07-20.36 102.36-19.57 101.65-18.77 101.65-17.6L101.65-17.6 101.65-8.74Q101.65-7.47 102.45-6.76 103.24-6.05 104.41-6.05L104.41-6.05 115.81-6.05 115.81 0 104.36 0Q103.04 0 101.52-0.46 99.99-0.93 98.69-1.97 97.38-3 96.5-4.68 95.62-6.35 95.62-8.74L95.62-8.74 95.62-17.65Q95.62-18.97 96.09-20.5 96.55-22.02 97.59-23.33 98.63-24.63 100.3-25.51 101.97-26.39 104.36-26.39L104.36-26.39 115.81-26.39Q117.13-26.39 118.66-25.93 120.18-25.46 121.49-24.43 122.8-23.39 123.67-21.72 124.55-20.04 124.55-17.65ZM157.78-37.55L157.78-8.91Q157.78-7.28 157.36-5.97 156.95-4.66 156.26-3.67 155.58-2.69 154.68-1.99 153.77-1.29 152.79-0.85 151.8-0.42 150.78-0.21 149.77 0 148.87 0L148.87 0 137.42 0Q135.78 0 134.49-0.42 133.19-0.83 132.2-1.53 131.22-2.22 130.52-3.13 129.82-4.03 129.38-5.02 128.95-6.01 128.74-7.02 128.53-8.03 128.53-8.91L128.53-8.91 128.53-17.5Q128.53-19.95 129.42-21.64 130.31-23.34 131.64-24.4 132.97-25.46 134.54-25.93 136.1-26.39 137.42-26.39L137.42-26.39 148.87-26.39 148.87-20.04 137.47-20.04Q136.2-20.04 135.54-19.4 134.88-18.75 134.88-17.5L134.88-17.5 134.88-8.96Q134.88-7.67 135.52-7.01 136.17-6.35 137.42-6.35L137.42-6.35 148.87-6.35Q150.16-6.35 150.8-7.01 151.43-7.67 151.43-8.91L151.43-8.91 151.43-37.55 157.78-37.55ZM215.15-31.81L215.15 0 208.8 0 208.8-8.59 186.48-8.59 186.48 0 180.14 0 180.14-17.5Q180.14-21.34 181.45-24.56 182.77-27.78 185.12-30.1 187.46-32.42 190.66-33.72 193.86-35.01 197.64-35.01L197.64-35.01 211.95-35.01Q212.61-35.01 213.19-34.77 213.78-34.52 214.22-34.08 214.66-33.64 214.9-33.06 215.15-32.47 215.15-31.81L215.15-31.81ZM186.48-17.5L186.48-14.94 208.8-14.94 208.8-28.66 197.64-28.66Q197.35-28.66 196.41-28.58 195.47-28.49 194.24-28.15 193-27.81 191.64-27.1 190.27-26.39 189.12-25.15 187.97-23.9 187.23-22.03 186.48-20.17 186.48-17.5L186.48-17.5ZM233.41-6.35L233.41 0 230.57 0Q229.21 0 227.66-0.46 226.11-0.93 224.76-1.99 223.42-3.05 222.54-4.75 221.66-6.45 221.66-8.91L221.66-8.91 221.66-37.55 228.01-37.55 228.01-8.91Q228.01-7.74 228.74-7.04 229.47-6.35 230.57-6.35L230.57-6.35 233.41-6.35ZM259.67-20.36L259.67-14.65 236.77-14.65 236.77-20.36 259.67-20.36ZM299.83-10.3L299.83-10.3Q299.83-8.42 299.35-6.92 298.88-5.42 298.1-4.27 297.32-3.13 296.27-2.32 295.22-1.51 294.09-1 292.97-0.49 291.81-0.24 290.65 0 289.63 0L289.63 0 265.14 0 265.14-6.35 289.63-6.35Q291.46-6.35 292.47-7.42 293.48-8.5 293.48-10.3L293.48-10.3Q293.48-11.18 293.21-11.91 292.95-12.65 292.45-13.18 291.95-13.72 291.23-14.01 290.5-14.31 289.63-14.31L289.63-14.31 275.03-14.31Q273.49-14.31 271.71-14.86 269.92-15.41 268.4-16.63 266.87-17.85 265.86-19.82 264.85-21.8 264.85-24.66L264.85-24.66Q264.85-27.51 265.86-29.48 266.87-31.45 268.4-32.68 269.92-33.91 271.71-34.46 273.49-35.01 275.03-35.01L275.03-35.01 296.63-35.01 296.63-28.66 275.03-28.66Q273.22-28.66 272.21-27.56 271.19-26.46 271.19-24.66L271.19-24.66Q271.19-22.83 272.21-21.77 273.22-20.7 275.03-20.7L275.03-20.7 289.63-20.7 289.67-20.7Q290.7-20.68 291.85-20.42 293-20.17 294.13-19.63 295.27-19.09 296.29-18.27 297.32-17.46 298.11-16.31 298.9-15.16 299.37-13.67 299.83-12.18 299.83-10.3ZM331.64-17.65L331.64-8.74Q331.64-7.42 331.18-5.9 330.71-4.37 329.67-3.06 328.64-1.76 326.96-0.88 325.29 0 322.9 0L322.9 0 311.45 0Q310.13 0 308.61-0.46 307.08-0.93 305.77-1.97 304.47-3 303.59-4.68 302.71-6.35 302.71-8.74L302.71-8.74Q302.71-10.06 303.17-11.6 303.64-13.13 304.67-14.44 305.71-15.75 307.38-16.63 309.06-17.5 311.45-17.5L311.45-17.5 322.9-17.5 322.9-11.45 311.45-11.45Q310.16-11.45 309.45-10.66 308.74-9.86 308.74-8.69L308.74-8.69Q308.74-7.45 309.56-6.75 310.38-6.05 311.5-6.05L311.5-6.05 322.9-6.05Q324.19-6.05 324.9-6.84 325.61-7.62 325.61-8.79L325.61-8.79 325.61-17.65Q325.61-18.9 324.84-19.63 324.07-20.36 322.9-20.36L322.9-20.36 308.96-20.36 308.96-26.39 322.9-26.39Q324.22-26.39 325.74-25.93 327.27-25.46 328.58-24.43 329.88-23.39 330.76-21.72 331.64-20.04 331.64-17.65L331.64-17.65ZM360.15-26.39L360.15-20.04 345.87-20.04Q344.58-20.04 343.92-19.4 343.26-18.75 343.26-17.5L343.26-17.5 343.26 0 336.91 0 336.91-17.5Q336.91-19.14 337.33-20.43 337.74-21.73 338.44-22.72 339.13-23.71 340.04-24.4 340.94-25.1 341.93-25.54 342.92-25.98 343.93-26.18 344.94-26.39 345.82-26.39L345.82-26.39 360.15-26.39ZM393.18-37.55L393.18-8.91Q393.18-7.28 392.77-5.97 392.35-4.66 391.67-3.67 390.99-2.69 390.08-1.99 389.18-1.29 388.19-0.85 387.2-0.42 386.19-0.21 385.18 0 384.27 0L384.27 0 372.82 0Q371.19 0 369.89-0.42 368.6-0.83 367.61-1.53 366.62-2.22 365.92-3.13 365.23-4.03 364.79-5.02 364.35-6.01 364.14-7.02 363.93-8.03 363.93-8.91L363.93-8.91 363.93-17.5Q363.93-19.95 364.83-21.64 365.72-23.34 367.05-24.4 368.38-25.46 369.94-25.93 371.5-26.39 372.82-26.39L372.82-26.39 384.27-26.39 384.27-20.04 372.87-20.04Q371.6-20.04 370.94-19.4 370.28-18.75 370.28-17.5L370.28-17.5 370.28-8.96Q370.28-7.67 370.93-7.01 371.58-6.35 372.82-6.35L372.82-6.35 384.27-6.35Q385.57-6.35 386.2-7.01 386.84-7.67 386.84-8.91L386.84-8.91 386.84-37.55 393.18-37.55ZM405.68-37.55L405.68-31.81 399.33-31.81 399.33-37.55 405.68-37.55ZM405.68-26.39L405.68 0 399.33 0 399.33-26.39 405.68-26.39Z" opacity="1" transform="matrix(1,0,0,1,0,0)" fill="#ffffff" class="undefined-text-0" data-fill-palette-color="primary" id="text-0"></path></svg></g></svg></g></svg></g></svg></g><g></g></svg></g><defs></defs></svg><rect width="395.52" height="48.206026598651846" fill="none" stroke="none" visibility="hidden"></rect></g></svg></g></svg>